<?xml version="1.0" encoding="UTF-8"?>
<svg width="110px" height="54px" viewBox="0 0 110 54" version="1.1" xmlns="http://www.w3.org/2000/svg" xmlns:xlink="http://www.w3.org/1999/xlink">
    <g id="Page-1" stroke="none" stroke-width="1" fill="none" fill-rule="evenodd">
        <g id="menu_logo">
            <g id="bildmarke" transform="translate(76.000000, 0.000000)" fill-rule="nonzero">
                <g id="right" transform="translate(11.500707, 0.000000)">
                    <path d="M20.7269056,24.1502284 C21.0800655,24.3992795 21.3681435,24.2517044 21.3702943,23.8306784 L21.4125962,15.5524631 C21.4147577,15.1269295 21.1302303,14.5798257 20.7761612,14.3298282 L0.66024415,0.126584001 C0.306583766,-0.123124963 0.0191776561,0.0253334004 0.0183250255,0.448066101 L0.00155865127,8.75983825 C0.000698839982,9.18709688 0.28588479,9.73506637 0.639452899,9.98440526 L20.7269056,24.1502284 Z" id="Rectangle-1" fill="#FED136"></path>
                    <path d="M20.7269056,14.7315224 C21.0800655,14.4824714 21.3681435,14.6300464 21.3702943,15.0510725 L21.4125962,23.3292877 C21.4147577,23.7548214 21.1302303,24.3019251 20.7761612,24.5519227 L0.66024415,38.7551669 C0.306583766,39.0048758 0.0191776561,38.8564175 0.0183250255,38.4336848 L0.00155865127,30.1219126 C0.000698839982,29.694654 0.28588479,29.1466845 0.639452899,28.8973456 L20.7269056,14.7315224 Z" id="Rectangle-2" fill="#F5C12C"></path>
                </g>
                <g id="left" transform="translate(0.000000, 6.551867)">
                    <path d="M13.7065021,16.0692618 C13.9400433,16.2343221 14.1305465,16.1365157 14.1319688,15.857478 L14.1599427,10.3710362 C14.161372,10.0890109 13.9732168,9.72641433 13.7390743,9.56072679 L0.436613067,0.147432994 C0.202740878,-0.0180632696 0.0126819984,0.0803284902 0.012118162,0.360497377 L0.001030721,5.86917921 C0.000462136117,6.15234769 0.189052845,6.51551808 0.422864014,6.68076908 L13.7065021,16.0692618 Z" id="Rectangle-1" fill="#FED136"></path>
                    <path d="M13.7065021,9.82695231 C13.9400433,9.66189207 14.1305465,9.75969842 14.1319688,10.0387362 L14.1599427,15.525178 C14.161372,15.8072032 13.9732168,16.1697998 13.7390743,16.3354874 L0.436613067,25.7487812 C0.202740878,25.9142774 0.0126819984,25.8158857 0.012118162,25.5357168 L0.001030721,20.0270349 C0.000462136117,19.7438665 0.189052845,19.3806961 0.422864014,19.2154451 L13.7065021,9.82695231 Z" id="Rectangle-2" fill="#F5C12C"></path>
                </g>
            </g>
            <g id="txt">
                <g transform="translate(0.000000, 36.000000)">
                    <path d="M3.85000523,9.71103926 C3.32938291,9.50560554 2.86236107,9.28042195 2.4489257,9.03548174 C2.03549033,8.79054153 1.68330992,8.49819792 1.39237392,8.15844215 C1.10143792,7.81868637 0.875583094,7.41177567 0.714802672,6.93769785 C0.55402225,6.46362002 0.473633245,5.89473516 0.473633245,5.23102621 C0.473633245,4.4250939 0.60761492,3.71398783 0.87558229,3.09768665 C1.14354966,2.48138548 1.5225264,1.96385828 2.01252388,1.54508954 C2.50252135,1.12632079 3.09204072,0.810273647 3.78109968,0.596938625 C4.47015863,0.383603603 5.2434243,0.276937693 6.10091988,0.276937693 C6.88185336,0.276937693 7.6130105,0.3480483 8.29441324,0.490271648 C8.97581598,0.632494996 9.69166093,0.837925639 10.4419696,1.10656974 C10.350095,2.0231202 10.1051,2.92385456 9.70697703,3.80879984 C9.47729071,3.71398427 9.24377979,3.61917013 9.00643726,3.52435457 C8.76909474,3.429539 8.51644358,3.35052721 8.24847621,3.28731684 C7.98050884,3.22410646 7.67809306,3.1727488 7.34121979,3.13324231 C7.00434653,3.09373583 6.62154174,3.07398288 6.19279395,3.07398288 C5.93248279,3.07398288 5.66834749,3.09768642 5.40038012,3.1450942 C5.13241274,3.19250198 4.89124573,3.27941495 4.67687183,3.4058357 C4.46249794,3.53225645 4.28640774,3.71793415 4.14859595,3.96287436 C4.01078415,4.20781457 3.94187929,4.5278123 3.94187929,4.92287716 C3.94187929,5.23892904 3.99547196,5.50361853 4.10265891,5.71695355 C4.20984586,5.93028857 4.35531168,6.11201568 4.53906073,6.26214032 C4.72280979,6.41226497 4.92952437,6.53868383 5.15921069,6.64140069 C5.38889701,6.74411755 5.61857988,6.84288228 5.84826619,6.93769785 L7.22637721,7.48288462 C7.80824921,7.71992353 8.33651982,7.96486007 8.81120487,8.21770158 C9.28588993,8.47054309 9.68783495,8.78263964 10.017052,9.1540006 C10.3462691,9.52536157 10.6027483,9.97572875 10.7864973,10.5051157 C10.9702464,11.0345026 11.0621195,11.6863498 11.0621195,12.4606769 C11.0621195,13.2666092 10.9204818,14.0014188 10.637202,14.6651278 C10.3539222,15.3288367 9.94432105,15.8977216 9.40838631,16.3717994 C8.87245157,16.8458772 8.21019929,17.2172326 7.4216096,17.4858767 C6.63301991,17.7545208 5.72577257,17.8888409 4.69984035,17.8888409 C4.19453045,17.8888409 3.7428208,17.8730385 3.34469785,17.8414333 C2.9465749,17.8098281 2.56759817,17.7584705 2.20775627,17.6873588 C1.84791437,17.6162471 1.49190592,17.5253836 1.13972023,17.4147654 C0.787534548,17.3041473 0.420041953,17.1698272 0.0372314241,17.0118013 C0.0831686875,16.5535261 0.167385741,16.0755047 0.28988511,15.577723 C0.412384479,15.0799413 0.557850298,14.5782165 0.72628693,14.0725335 C1.36940862,14.3411776 1.97424018,14.5426576 2.54079976,14.6769797 C3.10735935,14.8113017 3.71219091,14.8784617 4.3553126,14.8784617 C5.31999513,14.8784617 6.07794861,14.692784 6.62919577,14.3214231 C7.18044293,13.9500621 7.45606238,13.3851278 7.45606238,12.6266033 C7.45606238,12.2473411 7.39098556,11.9312939 7.26082998,11.6784524 C7.1306744,11.4256109 6.9622403,11.2122791 6.75552261,11.0384505 C6.54880493,10.864622 6.31529401,10.7184502 6.05498285,10.5999307 C5.79467169,10.4814113 5.52670834,10.3668442 5.25108476,10.256226 L3.85000523,9.71103926 Z M13.4738138,0.561382966 C14.0403734,0.466567401 14.5992684,0.419160329 15.1505155,0.419160329 C15.7017627,0.419160329 16.2683138,0.466567401 16.8501858,0.561382966 L16.8501858,17.6043956 C16.2683138,17.6992112 15.7094188,17.7466182 15.173484,17.7466182 C14.6069245,17.7466182 14.0403734,17.6992112 13.4738138,17.6043956 L13.4738138,0.561382966 Z M20.2265578,0.561382966 C20.9003043,0.482369995 21.5319322,0.415209977 22.1214604,0.359900897 C22.7109886,0.304591818 23.3655848,0.276937693 24.0852686,0.276937693 C24.9274518,0.276937693 25.7581381,0.355949478 26.5773527,0.51397542 C27.3965672,0.672001363 28.1353804,0.952493202 28.7938146,1.35545935 C29.4522487,1.75842551 29.9843473,2.30360683 30.3901265,2.99101968 C30.7959056,3.67843253 30.9987922,4.55151276 30.9987922,5.61028657 C30.9987922,6.24239034 30.9222312,6.79942343 30.769107,7.28140255 C30.6159828,7.76338168 30.4207524,8.18609473 30.1834098,8.5495544 C29.9460673,8.91301406 29.6895881,9.22511062 29.4139645,9.48585342 C29.1383409,9.74659623 28.8780337,9.95597746 28.6330349,10.1140034 L28.2425702,10.3747449 L32.2620606,17.5806918 C31.9558122,17.612297 31.6342562,17.6439017 31.2973829,17.6755069 C30.9605096,17.7071121 30.6159853,17.7229145 30.2637996,17.7229145 C29.6819276,17.7229145 29.1077205,17.6755074 28.5411609,17.5806918 L24.2230797,9.66363172 L24.7743241,9.37918645 C24.988698,9.26856829 25.2490053,9.12634707 25.5552537,8.95251853 C25.8615021,8.77869 26.1562618,8.56140759 26.4395416,8.30066478 C26.7228214,8.03992198 26.9639884,7.72387484 27.1630499,7.35251387 C27.3621113,6.98115291 27.4616406,6.5426375 27.4616406,6.03695448 C27.4616406,5.04139105 27.1860211,4.31053203 26.634774,3.8443555 C26.0835268,3.37817897 25.3715099,3.1450942 24.4987019,3.1450942 C24.1618286,3.1450942 23.8555848,3.16879774 23.5799612,3.21620552 L23.5799612,17.6043956 C23.3043376,17.6360008 23.0287182,17.6636549 22.7530946,17.6873588 C22.477471,17.7110627 22.2095077,17.7229145 21.9491965,17.7229145 C21.6888854,17.7229145 21.4132659,17.7150133 21.1223299,17.6992107 C20.8313939,17.6834081 20.5328062,17.6518034 20.2265578,17.6043956 L20.2265578,0.561382966 Z M34.099542,0.561382966 C34.6661015,0.466567401 35.2249965,0.419160329 35.7762437,0.419160329 C36.3274908,0.419160329 36.8940419,0.466567401 37.4759139,0.561382966 L37.4759139,17.6043956 C36.8940419,17.6992112 36.3351469,17.7466182 35.7992122,17.7466182 C35.2326526,17.7466182 34.6661015,17.6992112 34.099542,17.6043956 L34.099542,0.561382966 Z M40.5996322,0.561382966 C40.8905682,0.513975183 41.1738438,0.482370469 41.4494674,0.466567875 C41.7250909,0.450765281 42.0083665,0.442864102 42.2993025,0.442864102 C42.5596136,0.442864102 42.827577,0.450765281 43.1032006,0.466567875 C43.3788242,0.482370469 43.6620997,0.513975183 43.9530357,0.561382966 L43.9530357,9.40289022 C43.9530357,10.3668485 43.9874881,11.1925216 44.056394,11.8799345 C44.1252999,12.5673473 44.2631096,13.1362322 44.4698273,13.5866061 C44.676545,14.0369801 44.9674766,14.3688296 45.342631,14.5821646 C45.7177853,14.7954996 46.2039474,14.9021655 46.8011318,14.9021655 C47.3983162,14.9021655 47.8806502,14.7954996 48.2481484,14.5821646 C48.6156465,14.3688296 48.90275,14.0369801 49.1094677,13.5866061 C49.3161854,13.1362322 49.4539951,12.5673473 49.522901,11.8799345 C49.5918069,11.1925216 49.6262594,10.3668485 49.6262594,9.40289022 L49.6262594,0.561382966 C49.9325078,0.513975183 50.2234394,0.482370469 50.499063,0.466567875 C50.7746866,0.450765281 51.0426499,0.442864102 51.3029611,0.442864102 C51.5785847,0.442864102 51.8580322,0.450765281 52.141312,0.466567875 C52.4245918,0.482370469 52.7116953,0.513975183 53.0026313,0.561382966 L53.0026313,10.1377072 C53.0026313,11.2912966 52.9107582,12.3461039 52.7270091,13.3021608 C52.5432601,14.2582178 52.214048,15.0759898 51.7393629,15.7555013 C51.2646779,16.4350129 50.6292219,16.9604413 49.832976,17.3318022 C49.0367301,17.7031632 48.0261255,17.8888409 46.8011318,17.8888409 C45.5761381,17.8888409 44.5655335,17.7031632 43.7692876,17.3318022 C42.9730417,16.9604413 42.3375857,16.4350129 41.8629007,15.7555013 C41.3882156,15.0759898 41.0590035,14.2582178 40.8752544,13.3021608 C40.6915054,12.3461039 40.5996322,11.2912966 40.5996322,10.1377072 L40.5996322,0.561382966 Z M59.1122568,9.71103926 C58.5916345,9.50560554 58.1246127,9.28042195 57.7111773,9.03548174 C57.2977419,8.79054153 56.9455615,8.49819792 56.6546255,8.15844215 C56.3636895,7.81868637 56.1378347,7.41177567 55.9770543,6.93769785 C55.8162739,6.46362002 55.7358849,5.89473516 55.7358849,5.23102621 C55.7358849,4.4250939 55.8698665,3.71398783 56.1378339,3.09768665 C56.4058013,2.48138548 56.784778,1.96385828 57.2747755,1.54508954 C57.764773,1.12632079 58.3542923,0.810273647 59.0433513,0.596938625 C59.7324102,0.383603603 60.5056759,0.276937693 61.3631715,0.276937693 C62.144105,0.276937693 62.8752621,0.3480483 63.5566648,0.490271648 C64.2380676,0.632494996 64.9539125,0.837925639 65.7042212,1.10656974 C65.6123467,2.0231202 65.3673516,2.92385456 64.9692286,3.80879984 C64.7395423,3.71398427 64.5060314,3.61917013 64.2686889,3.52435457 C64.0313463,3.429539 63.7786952,3.35052721 63.5107278,3.28731684 C63.2427604,3.22410646 62.9403447,3.1727488 62.6034714,3.13324231 C62.2665981,3.09373583 61.8837933,3.07398288 61.4550456,3.07398288 C61.1947344,3.07398288 60.9305991,3.09768642 60.6626317,3.1450942 C60.3946644,3.19250198 60.1534973,3.27941495 59.9391234,3.4058357 C59.7247495,3.53225645 59.5486593,3.71793415 59.4108476,3.96287436 C59.2730358,4.20781457 59.2041309,4.5278123 59.2041309,4.92287716 C59.2041309,5.23892904 59.2577236,5.50361853 59.3649105,5.71695355 C59.4720975,5.93028857 59.6175633,6.11201568 59.8013123,6.26214032 C59.9850614,6.41226497 60.191776,6.53868383 60.4214623,6.64140069 C60.6511486,6.74411755 60.8808315,6.84288228 61.1105178,6.93769785 L62.4886288,7.48288462 C63.0705008,7.71992353 63.5987714,7.96486007 64.0734565,8.21770158 C64.5481415,8.47054309 64.9500866,8.78263964 65.2793036,9.1540006 C65.6085207,9.52536157 65.8649999,9.97572875 66.0487489,10.5051157 C66.232498,11.0345026 66.3243711,11.6863498 66.3243711,12.4606769 C66.3243711,13.2666092 66.1827334,14.0014188 65.8994536,14.6651278 C65.6161738,15.3288367 65.2065727,15.8977216 64.6706379,16.3717994 C64.1347032,16.8458772 63.4724509,17.2172326 62.6838612,17.4858767 C61.8952715,17.7545208 60.9880242,17.8888409 59.962092,17.8888409 C59.4567821,17.8888409 59.0050724,17.8730385 58.6069495,17.8414333 C58.2088265,17.8098281 57.8298498,17.7584705 57.4700079,17.6873588 C57.110166,17.6162471 56.7541575,17.5253836 56.4019718,17.4147654 C56.0497862,17.3041473 55.6822936,17.1698272 55.299483,17.0118013 C55.3454203,16.5535261 55.4296373,16.0755047 55.5521367,15.577723 C55.6746361,15.0799413 55.8201019,14.5782165 55.9885385,14.0725335 C56.6316602,14.3411776 57.2364918,14.5426576 57.8030514,14.6769797 C58.369611,14.8113017 58.9744425,14.8784617 59.6175642,14.8784617 C60.5822467,14.8784617 61.3402002,14.692784 61.8914474,14.3214231 C62.4426945,13.9500621 62.718314,13.3851278 62.718314,12.6266033 C62.718314,12.2473411 62.6532372,11.9312939 62.5230816,11.6784524 C62.392926,11.4256109 62.2244919,11.2122791 62.0177742,11.0384505 C61.8110565,10.864622 61.5775456,10.7184502 61.3172345,10.5999307 C61.0569233,10.4814113 60.7889599,10.3668442 60.5133364,10.256226 L59.1122568,9.71103926 Z M69.1494987,0.182122601 C69.2413732,0.166320007 69.3676988,0.154468239 69.5284792,0.146566942 C69.6892597,0.138665645 69.8155852,0.134715056 69.9074598,0.134715056 C69.9840219,0.134715056 70.1065194,0.138665645 70.274956,0.146566942 C70.4433927,0.154468239 70.5735463,0.166320007 70.6654208,0.182122601 L70.6654208,14.8073504 C70.6654208,15.2182179 70.7113574,15.5382156 70.8032319,15.7673532 C70.8951065,15.9964908 71.0099479,16.1624156 71.1477597,16.2651324 C71.2855715,16.3678493 71.4386934,16.4310587 71.60713,16.4547626 C71.7755666,16.4784665 71.9286886,16.4903183 72.0665004,16.4903183 C72.234937,16.4903183 72.4110272,16.4784665 72.5947762,16.4547626 C72.7785253,16.4310587 72.9316472,16.4034046 73.0541466,16.3717994 C73.1307087,16.5614305 73.1843014,16.7668612 73.2149262,16.9880975 C73.245551,17.2093338 73.2685193,17.4147645 73.2838317,17.6043956 C73.0694579,17.6834086 72.8282908,17.7387168 72.5603235,17.770322 C72.2923561,17.8019272 72.043533,17.8177296 71.8138467,17.8177296 C71.4922858,17.8177296 71.1707298,17.7821743 70.849169,17.7110626 C70.5276081,17.6399509 70.2405045,17.5056309 69.9878496,17.3080984 C69.7351946,17.110566 69.5323081,16.8419259 69.3791839,16.5021702 C69.2260597,16.1624144 69.1494987,15.7159978 69.1494987,15.162907 L69.1494987,0.182122601 Z M76.2697389,6.84288276 L74.7997539,6.84288276 C74.7844414,6.76386979 74.7729573,6.66905564 74.7653011,6.55843748 C74.7576449,6.44781932 74.7538168,6.32930164 74.7538168,6.20288089 C74.7538168,6.07646014 74.7576449,5.95004128 74.7653011,5.82362053 C74.7729573,5.69719977 74.7844414,5.59448445 74.7997539,5.51547148 L77.7856611,5.51547148 L77.7856611,17.6043956 C77.6937865,17.6201982 77.5674609,17.63205 77.4066805,17.6399513 C77.2459001,17.6478526 77.1195745,17.6518031 77.0277,17.6518031 C76.9511379,17.6518031 76.8286404,17.6478526 76.6602037,17.6399513 C76.4917671,17.63205 76.3616135,17.6201982 76.2697389,17.6043956 L76.2697389,6.84288276 Z M75.5117779,2.55249988 C75.4964655,2.41027653 75.4849813,2.2364506 75.4773251,2.03101688 C75.4696689,1.82558315 75.4658409,1.65175723 75.4658409,1.50953388 C75.4658409,1.38311312 75.4696689,1.22508955 75.4773251,1.03545842 C75.4849813,0.845827291 75.4964655,0.68780372 75.5117779,0.561382966 C75.6495897,0.545580372 75.8180238,0.533728604 76.0170853,0.525827307 C76.2161467,0.51792601 76.3845808,0.51397542 76.5223926,0.51397542 C76.644892,0.51397542 76.7980139,0.51792601 76.981763,0.525827307 C77.165512,0.533728604 77.3186339,0.545580372 77.4411333,0.561382966 C77.4564457,0.68780372 77.4679299,0.845827291 77.4755861,1.03545842 C77.4832423,1.22508955 77.4870703,1.38311312 77.4870703,1.50953388 C77.4870703,1.65175723 77.4832423,1.82558315 77.4755861,2.03101688 C77.4679299,2.2364506 77.4564457,2.41027653 77.4411333,2.55249988 C77.3186339,2.56830247 77.165512,2.58015424 76.981763,2.58805554 C76.7980139,2.59595684 76.644892,2.59990743 76.5223926,2.59990743 C76.3845808,2.59990743 76.2161467,2.59595684 76.0170853,2.58805554 C75.8180238,2.58015424 75.6495897,2.56830247 75.5117779,2.55249988 Z M83.3440421,16.1584655 C83.6962278,16.2848862 84.0675485,16.3757498 84.4580152,16.4310589 C84.8484819,16.4863679 85.2657392,16.5140221 85.7097994,16.5140221 C86.3222962,16.5140221 86.9079875,16.4113067 87.4668909,16.205873 C88.0257943,16.0004393 88.5157844,15.6843921 88.936876,15.2577221 C89.3579676,14.8310521 89.6948358,14.2898213 89.9474907,13.6340137 C90.2001457,12.978206 90.3264713,12.1920387 90.3264713,11.2754883 C90.3264713,9.8374522 90.062336,8.70758366 89.5340574,7.88584876 C89.0057789,7.06411386 88.1521242,6.65325257 86.9730678,6.65325257 C86.6055697,6.65325257 86.2074527,6.716462 85.7787049,6.84288276 C85.3499571,6.96930351 84.9556682,7.18263533 84.5958263,7.48288462 C84.2359844,7.78313391 83.9373967,8.18214343 83.7000542,8.67992515 C83.4627116,9.17770687 83.3440421,9.80585056 83.3440421,10.5643751 L83.3440421,16.1584655 Z M81.82812,0.182122601 C81.9199946,0.166320007 82.0463201,0.154468239 82.2071006,0.146566942 C82.367881,0.138665645 82.4942066,0.134715056 82.5860811,0.134715056 C82.6626432,0.134715056 82.7851407,0.138665645 82.9535774,0.146566942 C83.122014,0.154468239 83.2521676,0.166320007 83.3440421,0.182122601 L83.3440421,7.19843935 C83.665603,6.69275633 84.1287968,6.23843856 84.7336374,5.83547241 C85.338478,5.43250626 86.1232279,5.23102621 87.0879104,5.23102621 C87.8075942,5.23102621 88.4660184,5.3455933 89.0632028,5.57473091 C89.6603873,5.80386853 90.1695176,6.16337215 90.5906092,6.65325257 C91.0117008,7.14313299 91.3409129,7.75942492 91.5782554,8.50214685 C91.815598,9.24486878 91.9342675,10.137702 91.9342675,11.1806732 C91.9342675,13.2824182 91.3753725,14.9258634 90.2575657,16.1110579 C89.139759,17.2962525 87.5243228,17.8888409 85.4112087,17.8888409 C84.7221497,17.8888409 84.0560694,17.8216809 83.4129477,17.6873588 C82.769826,17.5530368 82.2415554,17.406865 81.82812,17.248839 L81.82812,0.182122601 Z" id="SIRIUSlib" fill="#555555" fill-rule="nonzero"></path>
                </g>
            </g>
        </g>
    </g>
</svg>
