<!--!Font Awesome Free 6.7.2 by @fontawesome - https://fontawesome.com License - https://fontawesome.com/license/free Copyright 2025 Fonticons, Inc.-->
<svg xmlns="http://www.w3.org/2000/svg"
     viewBox="0 0 512 512">
    <path d="M149.3 216v80c0 13.3-10.7 24-24 24H24c-13.3 0-24-10.7-24-24v-80c0-13.3 10.7-24 24-24h101.3c13.3 0 24 10.7 24 24zM0 376v80c0 13.3 10.7 24 24 24h101.3c13.3 0 24-10.7 24-24v-80c0-13.3-10.7-24-24-24H24c-13.3 0-24 10.7-24 24zM125.3 32H24C10.7 32 0 42.7 0 56v80c0 13.3 10.7 24 24 24h101.3c13.3 0 24-10.7 24-24V56c0-13.3-10.7-24-24-24zm80 448H488c13.3 0 24-10.7 24-24v-80c0-13.3-10.7-24-24-24H205.3c-13.3 0-24 10.7-24 24v80c0 13.3 10.7 24 24 24zm-24-424v80c0 13.3 10.7 24 24 24H488c13.3 0 24-10.7 24-24V56c0-13.3-10.7-24-24-24H205.3c-13.3 0-24 10.7-24 24zm24 264H488c13.3 0 24-10.7 24-24v-80c0-13.3-10.7-24-24-24H205.3c-13.3 0-24 10.7-24 24v80c0 13.3 10.7 24 24 24z"/>
</svg>
