<?xml version="1.0" encoding="UTF-8"?>
<svg viewBox="0 0 32 32" version="1.1" xmlns="http://www.w3.org/2000/svg" xmlns:xlink="http://www.w3.org/1999/xlink">
    <path d="M29.716,11.142 C30.347,11.142 30.886,11.365 31.332,11.812 C31.778,12.259 32.002,12.797 32.002,13.428 C32.002,14.059 31.779,14.598 31.332,15.044 C30.885,15.49 30.347,15.714 29.716,15.714 L29.716,22.571 C29.716,23.19 29.49,23.726 29.037,24.178 C28.584,24.63 28.049,24.857 27.43,24.857 C22.466,20.726 17.632,18.464 12.93,18.071 C12.239,18.297 11.698,18.69 11.305,19.25 C10.912,19.81 10.728,20.408 10.751,21.045 C10.775,21.682 11.013,22.232 11.465,22.697 C11.227,23.09 11.09,23.48 11.054,23.867 C11.018,24.254 11.054,24.599 11.161,24.903 C11.268,25.207 11.468,25.534 11.759,25.885 C12.05,26.236 12.336,26.534 12.616,26.778 C12.896,27.022 13.262,27.323 13.714,27.68 C13.369,28.371 12.705,28.865 11.723,29.162 C10.741,29.459 9.738,29.528 8.714,29.367 C7.69,29.206 6.904,28.876 6.357,28.376 C6.274,28.102 6.098,27.581 5.83,26.813 C5.562,26.045 5.372,25.483 5.259,25.125 C5.146,24.768 5.009,24.238 4.848,23.536 C4.687,22.834 4.598,22.232 4.58,21.732 C4.562,21.232 4.583,20.646 4.643,19.973 C4.703,19.3 4.833,18.643 5.036,18 L2.857,18 C2.071,18 1.399,17.72 0.839,17.161 C0.279,16.602 -2.48689958e-14,15.929 -2.48689958e-14,15.143 L-2.48689958e-14,11.714 C-2.48689958e-14,10.928 0.28,10.256 0.839,9.696 C1.398,9.136 2.071,8.857 2.857,8.857 L11.428,8.857 C16.607,8.857 21.94,6.571 27.428,2 C28.047,2 28.583,2.226 29.035,2.679 C29.487,3.132 29.714,3.667 29.714,4.286 L29.714,11.143 L29.716,11.142 Z M27.431,21.928 L27.431,4.892 C22.74,8.487 18.169,10.529 13.717,11.017 L13.717,15.838 C18.205,16.338 22.777,18.368 27.431,21.927 L27.431,21.928 Z" fill="#000000"></path>
</svg>
