<?xml version="1.0" encoding="UTF-8"?>
<svg viewBox="4 4 24 24" version="1.1" xmlns="http://www.w3.org/2000/svg" xmlns:xlink="http://www.w3.org/1999/xlink">
    <path d="M9.04677962,7 C9.50152387,7 9.89352689,7.2976543 9.98462731,7.71212891 L10.3502256,9.375 L25.9771097,9.375 C26.089912,9.7872652 25.7858013,12.7228518 25.0647777,18.1817597 C24.9657399,18.5872539 24.5782839,18.875 24.1313175,18.875 L12.4388342,18.875 L12.6998904,20.0625 L23.4061039,20.0625 C24.0203935,20.0625 24.4756962,20.5932012 24.3395641,21.1505097 L24.1195112,22.0513769 C24.8650269,22.3880703 25.3790821,23.0990859 25.3790821,23.921875 C25.3790821,25.0695938 24.3790516,26 23.1454467,26 C21.9118417,26 20.9118112,25.0695938 20.9118112,23.921875 C20.9118112,23.3402227 21.1689585,22.8147168 21.5828193,22.4375 L13.2207662,22.4375 C13.6346669,22.8147168 13.8918141,23.3402227 13.8918141,23.921875 C13.8918141,25.0695938 12.8917836,26 11.6581787,26 C10.4245737,26 9.42454322,25.0695938 9.42454322,23.921875 C9.42454322,23.1508164 9.8762561,22.4783203 10.5465861,22.1196582 L7.74464993,9.375 L4.95727209,9.375 C4.4285788,9.375 4,8.97625977 4,8.484375 L4,7.890625 C4,7.39874023 4.4285788,7 4.95727209,7 L9.04677962,7 Z" fill="#000000"></path>
</svg>
