<?xml version="1.0" encoding="UTF-8"?>
<svg viewBox="0 0 32 32" version="1.1" xmlns="http://www.w3.org/2000/svg" xmlns:xlink="http://www.w3.org/1999/xlink">
    <path d="M24,4 C20.9263125,4 18.123125,5.2043251 16,7.1839939 C13.8769375,5.2043251 11.0736875,4 8,4 C4.9263125,4 2.1230625,5.2043251 0,7.18392879 L0,7.74357732 L0,10.2494954 L0,22.7500488 L0,25.38722 L0,25.815355 C0.021375,25.8352774 0.04225,25.8557206 0.06375,25.8755127 C0.5768125,26.3471383 1.12875,26.7738411 1.714125,27.149566 C2.3035,26.6527445 2.9478125,26.2240235 3.6366875,25.8755127 C4.9553125,25.2083096 6.435625,24.8338216 8,24.8338216 C9.564375,24.8338216 11.04475,25.2083096 12.3633125,25.8755127 C13.052125,26.2240886 13.6965,26.6527445 14.285875,27.149566 C14.401,27.2466386 14.514,27.3463154 14.624875,27.4485313 C15.131625,27.91586 15.592875,28.4354685 16,29 C16.4071875,28.4354685 16.868375,27.91586 17.375125,27.4485313 C17.4859375,27.3463805 17.5989375,27.2466386 17.714125,27.149566 C18.3035,26.6527445 18.9478125,26.2240235 19.6366875,25.8755127 C20.9553125,25.2083096 22.435625,24.8338216 24,24.8338216 C25.564375,24.8338216 27.04475,25.2083096 28.3633125,25.8755127 C29.052125,26.2240886 29.6965,26.6527445 30.285875,27.149566 C30.87125,26.7738411 31.423125,26.3471383 31.9361875,25.8755127 C31.9576875,25.8557206 31.978625,25.8352774 32,25.815355 L32,25.38722 L32,22.7500488 L32,10.2494954 L32,7.74357732 L32,7.18392879 C29.8769375,5.2043251 27.0736875,4 24,4 Z M8.5,22.4487851 C6.49616667,22.4487851 4.61803125,23.013933 3,24 L3,8.93067571 C4.53203646,7.71842885 6.43635417,7 8.5,7 C10.5639323,7 12.4679062,7.71927371 14,8.93188264 L14,24 C12.3819688,23.013933 10.5038333,22.4487851 8.5,22.4487851 Z M23.5,22.4487302 C21.4961667,22.4487302 19.6180313,23.0138762 18,24 L18,8.93187579 C19.5320938,7.71927116 21.436125,7 23.5,7 C25.5637031,7 27.4679635,7.71848665 29,8.9307292 L29,24 C27.3819687,23.0138762 25.5038333,22.4487302 23.5,22.4487302 Z" fill="#000000"></path>
</svg>
