<?xml version="1.0" encoding="UTF-8"?>
<svg viewBox="0 0 32 32" version="1.1" xmlns="http://www.w3.org/2000/svg" xmlns:xlink="http://www.w3.org/1999/xlink">
    <path d="M32,17.8746768 C32,18.1978417 31.8238859,18.5417147 31.4716576,18.906296 L25.7495381,25.0933858 C25.2612505,25.6247995 24.5771393,26.0754219 23.6972045,26.4452532 C22.8172697,26.8150844 22.0025034,27 21.2529058,27 L2.72372891,27 C2.33780374,27 1.99447657,26.9323337 1.69374739,26.7970012 C1.39301822,26.6616686 1.24265363,26.4376699 1.24265363,26.125005 C1.24265363,25.8018401 1.41876776,25.4579671 1.77099601,25.0933858 L7.49311557,18.906296 C7.98140311,18.3748823 8.6655143,17.9242599 9.54544913,17.5544287 C10.425384,17.1845974 11.2401502,16.9996818 11.9897479,16.9996818 L30.5189247,16.9996818 C30.9048499,16.9996818 31.2481771,17.0673481 31.5489062,17.2026807 C31.8496354,17.3380132 32,17.562012 32,17.8746768 L32,17.8746768 Z M26.1586696,12.4995824 L26.1586696,14.9994432 L11.9897479,14.9994432 C10.9222547,14.9994432 9.80389819,15.2467751 8.63467843,15.741439 C7.46545866,16.2361028 6.53434265,16.858516 5.84133039,17.6086784 L0.0171663587,23.8902677 C0.0171663587,23.8488512 0.0143052989,23.7838099 0.00858317935,23.6951438 C0.00286105978,23.6064776 3.55271368e-15,23.5414363 3.55271368e-15,23.5000199 L3.55271368e-15,8.49998011 C3.55271368e-15,7.54156889 0.374798832,6.7187819 1.1243965,6.03161914 C1.87399416,5.34445638 2.77077745,5.00058333 3.81474638,5 L9.26411158,5 C10.3087163,5 11.2054996,5.34387305 11.9544615,6.03161914 C12.7034233,6.71936523 13.0782222,7.54215222 13.078858,8.49998011 L13.078858,8.99960227 L22.3429695,8.99960227 C23.3875743,8.99960227 24.2843576,9.34347532 25.0333194,10.0312214 C25.7822813,10.7189675 26.1570801,11.5417545 26.1577159,12.4995824 L26.1586696,12.4995824 Z" fill="#000000"></path>
</svg>
