<!--!Font Awesome Free 6.7.2 by @fontawesome - https://fontawesome.com License - https://fontawesome.com/license/free Copyright 2025 Fonticons, Inc.-->
<svg xmlns="http://www.w3.org/2000/svg"
     viewBox="0 0 384 512">
    <path d="M384 112v352c0 26.5-21.5 48-48 48H48c-26.5 0-48-21.5-48-48V112c0-26.5 21.5-48 48-48h80c0-35.3 28.7-64 64-64s64 28.7 64 64h80c26.5 0 48 21.5 48 48zM192 40c-13.3 0-24 10.7-24 24s10.7 24 24 24 24-10.7 24-24-10.7-24-24-24m96 114v-20a6 6 0 0 0 -6-6H102a6 6 0 0 0 -6 6v20a6 6 0 0 0 6 6h180a6 6 0 0 0 6-6z"/>
</svg>
