<?xml version="1.0" encoding="UTF-8"?>
<svg viewBox="0 0 32 32" version="1.1" xmlns="http://www.w3.org/2000/svg" xmlns:xlink="http://www.w3.org/1999/xlink">
    <path d="M3.286,30 L8.429,30 L8.429,24.857 L3.286,24.857 L3.286,30 Z M9.571,30 L15.285,30 L15.285,24.857 L9.571,24.857 L9.571,30 Z M3.286,23.714 L8.429,23.714 L8.429,18 L3.286,18 L3.286,23.714 Z M9.571,23.714 L15.285,23.714 L15.285,18 L9.571,18 L9.571,23.714 Z M3.286,16.857 L8.429,16.857 L8.429,11.714 L3.286,11.714 L3.286,16.857 Z M16.429,30 L22.143,30 L22.143,24.857 L16.429,24.857 L16.429,30 Z M9.571,16.857 L15.285,16.857 L15.285,11.714 L9.571,11.714 L9.571,16.857 Z M23.286,30 L28.429,30 L28.429,24.857 L23.286,24.857 L23.286,30 Z M16.429,23.714 L22.143,23.714 L22.143,18 L16.429,18 L16.429,23.714 Z M10.143,8.286 L10.143,3.143 C10.143,2.98833333 10.0863333,2.85433333 9.973,2.741 C9.85966667,2.62766667 9.72566667,2.571 9.571,2.571 L8.428,2.571 C8.27333333,2.571 8.13933333,2.62766667 8.026,2.741 C7.91266667,2.85433333 7.856,2.98833333 7.856,3.143 L7.856,8.286 C7.856,8.44066667 7.91266667,8.57466667 8.026,8.688 C8.13933333,8.80133333 8.27333333,8.858 8.428,8.858 L9.571,8.858 C9.72566667,8.858 9.85966667,8.80133333 9.973,8.688 C10.0863333,8.57466667 10.143,8.44066667 10.143,8.286 Z M23.286,23.714 L28.429,23.714 L28.429,18 L23.286,18 L23.286,23.714 Z M16.429,16.857 L22.143,16.857 L22.143,11.714 L16.429,11.714 L16.429,16.857 Z M23.286,16.857 L28.429,16.857 L28.429,11.714 L23.286,11.714 L23.286,16.857 Z M23.857,8.286 L23.857,3.143 C23.857,2.98833333 23.8003333,2.85433333 23.687,2.741 C23.5736667,2.62766667 23.4396667,2.571 23.285,2.571 L22.142,2.571 C21.9873333,2.571 21.8533333,2.62766667 21.74,2.741 C21.6266667,2.85433333 21.57,2.98833333 21.57,3.143 L21.57,8.286 C21.57,8.44066667 21.6266667,8.57466667 21.74,8.688 C21.8533333,8.80133333 21.9873333,8.858 22.142,8.858 L23.285,8.858 C23.4396667,8.858 23.5736667,8.80133333 23.687,8.688 C23.8003333,8.57466667 23.857,8.44066667 23.857,8.286 Z M30.714,7.143 L30.714,30 C30.714,30.6193333 30.4876667,31.155 30.035,31.607 C29.5823333,32.059 29.0466667,32.2853333 28.428,32.286 L3.285,32.286 C2.66566667,32.286 2.13,32.0596667 1.678,31.607 C1.226,31.1543333 0.999666667,30.6186667 0.999,30 L0.999,7.143 C0.999,6.52366667 1.22533333,5.988 1.678,5.536 C2.13066667,5.084 2.66633333,4.85766667 3.285,4.857 L5.571,4.857 L5.571,3.143 C5.571,2.357 5.85066667,1.68433333 6.41,1.125 C6.96933333,0.565666667 7.642,0.286 8.428,0.286 L9.571,0.286 C10.357,0.286 11.0296667,0.565666667 11.589,1.125 C12.1483333,1.68433333 12.428,2.357 12.428,3.143 L12.428,4.857 L19.285,4.857 L19.285,3.143 C19.285,2.357 19.5646667,1.68433333 20.124,1.125 C20.6833333,0.565666667 21.356,0.286 22.142,0.286 L23.285,0.286 C24.071,0.286 24.7436667,0.565666667 25.303,1.125 C25.8623333,1.68433333 26.142,2.357 26.142,3.143 L26.142,4.857 L28.428,4.857 C29.0473333,4.857 29.583,5.08333333 30.035,5.536 C30.487,5.98866667 30.7133333,6.52433333 30.714,7.143 Z" fill="#000000"></path>
</svg>
