<?xml version="1.0" encoding="UTF-8"?>
<svg viewBox="0 0 32 32" version="1.1" xmlns="http://www.w3.org/2000/svg" xmlns:xlink="http://www.w3.org/1999/xlink">
    <path d="M23.2148571,16.6937143 C23.2148571,16.8571429 23.1462857,17.0205714 23.0102857,17.184 L16.5005714,23.6937143 C16.3508571,23.816 16.1942857,23.8777143 16.0308571,23.8777143 C15.8674286,23.8777143 15.7108571,23.816 15.5611429,23.6937143 L9.03085714,17.1634286 C8.82628571,16.9451429 8.77942857,16.7074286 8.888,16.4491429 C8.99657143,16.1771429 9.20114286,16.0411429 9.50057143,16.0411429 L13.4194286,16.0411429 L13.4194286,8.85714286 C13.4194286,8.66628571 13.4811429,8.50971429 13.6034286,8.38742857 C13.7257143,8.26514286 13.8822857,8.20342857 14.0731429,8.20342857 L17.992,8.20342857 C18.1828571,8.20342857 18.3394286,8.26514286 18.4617143,8.38742857 C18.584,8.50971429 18.6457143,8.66628571 18.6457143,8.85714286 L18.6457143,16.0411429 L22.5645714,16.0411429 C22.7554286,16.0411429 22.912,16.1028571 23.0342857,16.2251429 C23.1565714,16.3474286 23.2182857,16.504 23.2182857,16.6948571 L23.2182857,16.6948571 L23.2148571,16.6937143 Z M16.0308571,4.93828571 C14.0171429,4.93828571 12.16,5.43542857 10.4594286,6.42857143 C8.75885714,7.42171429 7.41142857,8.76914286 6.41828571,10.4697143 C5.42514286,12.1702857 4.928,14.0274286 4.928,16.0411429 C4.928,18.0548571 5.42514286,19.912 6.41828571,21.6125714 C7.41142857,23.3131429 8.75885714,24.6605714 10.4594286,25.6537143 C12.16,26.6468571 14.0171429,27.144 16.0308571,27.144 C18.0445714,27.144 19.9017143,26.6468571 21.6022857,25.6537143 C23.3028571,24.6605714 24.6502857,23.3131429 25.6434286,21.6125714 C26.6365714,19.912 27.1337143,18.0548571 27.1337143,16.0411429 C27.1337143,14.0274286 26.6365714,12.1702857 25.6434286,10.4697143 C24.6502857,8.76914286 23.3028571,7.42171429 21.6022857,6.42857143 C19.9017143,5.43542857 18.0445714,4.93828571 16.0308571,4.93828571 Z M31.704,16.0411429 C31.704,18.8845714 31.0034286,21.5074286 29.6022857,23.9085714 C28.2011429,26.3097143 26.2994286,28.2114286 23.8982857,29.6125714 C21.4971429,31.0137143 18.8742857,31.7142857 16.0308571,31.7142857 C13.1874286,31.7142857 10.5645714,31.0137143 8.16342857,29.6125714 C5.76228571,28.2114286 3.86057143,26.3097143 2.45942857,23.9085714 C1.05828571,21.5074286 0.357714286,18.8845714 0.357714286,16.0411429 C0.357714286,13.1977143 1.05828571,10.5748571 2.45942857,8.17371429 C3.86057143,5.77257143 5.76228571,3.87085714 8.16342857,2.46971429 C10.5645714,1.06857143 13.1874286,0.368 16.0308571,0.368 C18.8742857,0.368 21.4971429,1.06857143 23.8982857,2.46971429 C26.2994286,3.87085714 28.2011429,5.77257143 29.6022857,8.17371429 C31.0034286,10.5748571 31.704,13.1977143 31.704,16.0411429 Z" fill="#000000"></path>
</svg>
