<?xml version="1.0" encoding="UTF-8"?>
<svg viewBox="0 0 32 32" version="1.1" xmlns="http://www.w3.org/2000/svg" xmlns:xlink="http://www.w3.org/1999/xlink">
    <path d="M22.9111512,17.7084722 C22.9111512,17.5102782 22.8488478,17.3474618 22.7242411,17.220023 C22.5996343,17.0925843 22.4404361,17.0288897 22.2466465,17.0289392 L17.5956954,17.0289392 L17.5956954,9.55415139 C17.5956954,9.37012826 17.5299522,9.21087938 17.398466,9.07640474 C17.2669797,8.94193011 17.1112697,8.87469279 16.9313361,8.87469279 L12.9448169,8.87469279 C12.7648832,8.87469279 12.609149,8.94193011 12.4776143,9.07640474 C12.3460796,9.21087938 12.2803365,9.37012826 12.2803849,9.55415139 L12.2803849,17.0289392 L7.62943379,17.0289392 C7.44950012,17.0289392 7.29379015,17.0961766 7.16230388,17.2306512 C7.03081762,17.3651258 6.96507449,17.5243747 6.96507449,17.7083978 C6.96507449,17.9065919 7.02735363,18.0694082 7.15191191,18.196847 L14.4605183,25.6716348 C14.5850766,25.7990736 14.7442747,25.8627929 14.9381128,25.8627929 C15.1319509,25.8627929 15.2911491,25.7990736 15.4157074,25.6716348 L22.7036025,18.2181033 C22.8420167,18.048251 22.9112238,17.878374 22.9112238,17.7084722 L22.9111512,17.7084722 Z M32,21.4545075 C32,23.2613017 31.3749979,24.8039256 30.1249936,26.0823792 C28.8749894,27.3608328 27.3666465,28.0000398 25.599965,28 L7.46665889,28 C5.41111103,28 3.65279064,27.2528301 2.19169772,25.7584902 C0.730604795,24.2641504 3.88888484e-05,22.4658676 0,20.3636418 C0,18.8863644 0.388888484,17.5227177 1.16666545,16.2727015 C1.94444242,15.0226854 2.98889966,14.0851832 4.30003719,13.460195 C4.27779277,13.1192634 4.26667056,12.8749397 4.26667056,12.7272239 C4.26667056,10.318112 5.10000024,8.26130663 6.76665962,6.55680784 C8.43331899,4.85230905 10.4444169,4.00003977 12.7999533,4 C14.5333071,4 16.1194277,4.49431499 17.558315,5.48294497 C18.9972024,6.47157495 20.0444208,7.78407402 20.6999701,9.42044217 C21.4888693,8.71586881 22.4110794,8.36358213 23.4666006,8.36358213 C24.6443882,8.36358213 25.6499372,8.78970683 26.4832474,9.64195622 C27.3165577,10.4942056 27.7332128,11.5226083 27.7332128,12.7271643 C27.7332128,13.5907886 27.5054408,14.3748676 27.0498968,15.0794012 C28.4943453,15.431668 29.6804552,16.2015482 30.6082264,17.3890416 C31.5359977,18.5765351 31.9998833,19.9316506 31.9998833,21.4543882 L32,21.4545075 Z" fill="#000000"></path>
</svg>
