<?xml version="1.0" encoding="UTF-8"?>
<svg viewBox="0 0 32 32" version="1.1" xmlns="http://www.w3.org/2000/svg" xmlns:xlink="http://www.w3.org/1999/xlink">
    <path d="M23.8597156,21.5722917 L23.8597156,22.9058195 C23.8597156,23.100268 23.7984954,23.2601046 23.6760552,23.3853294 C23.5536149,23.5105543 23.3973324,23.5731667 23.2072078,23.5731667 L8.8668663,23.5731667 C8.67674165,23.5731667 8.52045919,23.5105543 8.39801892,23.3853294 C8.27557865,23.2601046 8.21435852,23.100268 8.21435852,22.9058195 L8.21435852,21.5722917 C8.21435852,21.3778432 8.27557865,21.2180065 8.39801892,21.0927817 C8.52045919,20.9675569 8.67674165,20.9049444 8.8668663,20.9049444 L23.2072078,20.9049444 C23.3973324,20.9049444 23.5536149,20.9675569 23.6760552,21.0927817 C23.7984954,21.2180065 23.8597156,21.3778432 23.8597156,21.5722917 Z M23.8597156,16.2381805 L23.8597156,17.5717083 C23.8597156,17.7661568 23.7984954,17.9259935 23.6760552,18.0512183 C23.5536149,18.1764431 23.3973324,18.2390556 23.2072078,18.2390556 L8.8668663,18.2390556 C8.67674165,18.2390556 8.52045919,18.1764431 8.39801892,18.0512183 C8.27557865,17.9259935 8.21435852,17.7661568 8.21435852,17.5717083 L8.21435852,16.2381805 C8.21435852,16.043732 8.27557865,15.8838954 8.39801892,15.7586706 C8.52045919,15.6334457 8.67674165,15.5708333 8.8668663,15.5708333 L23.2072078,15.5708333 C23.3973324,15.5708333 23.5536149,15.6334457 23.6760552,15.7586706 C23.7984954,15.8838954 23.8597156,16.043732 23.8597156,16.2381805 Z M5.60774963,28.9049444 L26.4674652,28.9049444 L26.4674652,12.9049444 L17.9928493,12.9049444 C17.4498533,12.9049444 16.9882306,12.7104959 16.6079813,12.3215989 C16.2277321,11.932702 16.0376074,11.460581 16.0376074,10.9052361 L16.0376074,2.23788887 L5.60774963,2.23788887 L5.60774963,28.9049444 Z M18.6442163,10.2378889 L26.3031975,10.2378889 C26.1670683,9.83499159 26.0176303,9.55031899 25.8548836,9.38387108 L19.4792437,2.86323523 C19.316497,2.69678732 19.0381546,2.5439508 18.6442163,2.40472568 L18.6442163,10.2378889 L18.6442163,10.2378889 Z M29.0740741,10.9052361 L29.0740741,29.5722917 C29.0740741,30.1276366 28.8839494,30.5997575 28.5037001,30.9886545 C28.1234508,31.3775515 27.6618282,31.572 27.1188322,31.572 L4.95524185,31.572 C4.41224586,31.572 3.95062323,31.3775515 3.57037394,30.9886545 C3.19012465,30.5997575 3,30.1276366 3,29.5722917 L3,1.57170833 C3,1.01636342 3.19012465,0.544242477 3.57037394,0.155345486 C3.95062323,-0.233551505 4.41224586,-0.428 4.95524185,-0.428 L17.9928493,-0.428 C18.5358452,-0.428 19.1332169,-0.289163774 19.7849642,-0.0114913227 C20.4367114,0.266181129 20.9527097,0.59946585 21.332959,0.988362841 L27.6880654,7.48799825 C28.0683147,7.87689524 28.3941883,8.40462846 28.6656863,9.0711979 C28.9371843,9.73776734 29.0729333,10.3487245 29.0729333,10.9040694 L29.0740741,10.9052361 Z" fill="#000000"></path>
</svg>
