<?xml version="1.0" encoding="UTF-8"?>
<svg viewBox="0 0 32 32" version="1.1" xmlns="http://www.w3.org/2000/svg" xmlns:xlink="http://www.w3.org/1999/xlink">
    <path d="M23.8597156,25.5717083 L23.8597156,24.2381805 C23.8597156,24.043732 23.7984954,23.8838954 23.6760552,23.7586706 C23.5536149,23.6334457 23.3973324,23.5708333 23.2072078,23.5708333 L8.8668663,23.5708333 C8.67674165,23.5708333 8.52045919,23.6334457 8.39801892,23.7586706 C8.27557865,23.8838954 8.21435852,24.043732 8.21435852,24.2381805 L8.21435852,25.5717083 C8.21435852,25.7661568 8.27557865,25.9259935 8.39801892,26.0512183 C8.52045919,26.1764431 8.67674165,26.2390556 8.8668663,26.2390556 L23.2072078,26.2390556 C23.3973324,26.2390556 23.5536149,26.1764431 23.6760552,26.0512183 C23.7984954,25.9259935 23.8597156,25.7661568 23.8597156,25.5717083 Z M23.8597156,20.2387639 L23.8597156,18.9052361 C23.8597156,18.7107876 23.7984954,18.550951 23.6760552,18.4257261 C23.5536149,18.3005013 23.3973324,18.2378889 23.2072078,18.2378889 L8.8668663,18.2378889 C8.67674165,18.2378889 8.52045919,18.3005013 8.39801892,18.4257261 C8.27557865,18.550951 8.21435852,18.7107876 8.21435852,18.9052361 L8.21435852,20.2387639 C8.21435852,20.4332124 8.27557865,20.593049 8.39801892,20.7182739 C8.52045919,20.8434987 8.67674165,20.9061111 8.8668663,20.9061111 L23.2072078,20.9061111 C23.3973324,20.9061111 23.5536149,20.8434987 23.6760552,20.7182739 C23.7984954,20.593049 23.8597156,20.4332124 23.8597156,20.2387639 Z M29.0740741,12.9049444 L29.0740741,29.5722917 C29.0740741,30.1276366 28.8839494,30.5997575 28.5037001,30.9886545 C28.1234508,31.3775515 27.6618282,31.572 27.1188322,31.572 L4.95524185,31.572 C4.41224586,31.572 3.95062323,31.3775515 3.57037394,30.9886545 C3.19012465,30.5997575 3,30.1276366 3,29.5722917 L3,1.57170833 C3,1.01636342 3.19012465,0.544242477 3.57037394,0.155345486 C3.95062323,-0.233551505 4.41224586,-0.428 4.95524185,-0.428 L16.0364667,-0.428 L16.0364667,10.9052361 C16.0364667,11.460581 16.2265913,11.932702 16.6068406,12.3215989 C16.9870899,12.7104959 17.4487125,12.9049444 17.9917085,12.9049444 L29.0729333,12.9049444 L29.0740741,12.9049444 Z M29.0136144,10.2378889 L18.645357,10.2378889 L18.645357,-0.366165378 C19.758727,-0.157716591 20.6549745,0.293792815 21.3340998,0.988362841 L27.6892062,7.48799825 C28.3683314,8.18256828 28.8098008,9.09919848 29.0136144,10.2378889 L29.0136144,10.2378889 Z" fill="#000000"></path>
</svg>
