<?xml version="1.0" encoding="UTF-8"?>
<svg viewBox="0 0 24 24" version="1.1" xmlns="http://www.w3.org/2000/svg" xmlns:xlink="http://www.w3.org/1999/xlink">
    <path d="M19.038056,5 L5.08407432,5 L10.9993975,11 L10.9993975,18 L12.9993975,16.0016102 L12.9993975,11 L19.038056,5 Z M14.9993386,12 L14.9993386,16.1705716 C14.9993386,16.6862891 14.8001245,17.1820728 14.4432901,17.5544084 L11.7316565,20.3838368 C11.3544367,20.7774432 10.8328847,21 10.2877051,21 L10.0701619,21 C9.47868846,21 8.99920448,20.520516 8.99920448,19.9290426 C8.99920448,19.9290339 8.99920448,19.9290252 8.99920449,19.9290165 L8.99939747,12 L8.99939747,12 C4.89165931,7.83756298 2.64423382,5.50422964 2.25712101,5 C2.25712101,5 2.25712101,5 2.25712101,5 C1.83906737,4.45546872 1.94159776,3.67513947 2.48612904,3.25708583 C2.70325869,3.09038863 2.96934273,3.00002753 3.24308211,3 L20.9993975,3 C21.5516822,3 21.9993975,3.44771525 21.9993975,4 L21.9993975,4.17156795 C21.9993975,4.70200384 21.7886815,5.21071422 21.4136051,5.58578746 L14.9993386,12 L14.9993386,12 Z"></path>
</svg>
