<?xml version="1.0" encoding="UTF-8"?>
<svg viewBox="0 0 32 32" version="1.1" xmlns="http://www.w3.org/2000/svg" xmlns:xlink="http://www.w3.org/1999/xlink">
    <path d="M4,0 C5.105,0 6,0.895 6,2 L6,32 L2,32 L2,2 C2,0.895 2.895,0 4,0 M25.25,5.385 C27.5404167,5.385 29.5950833,4.084 31,3.1 L31,21.715 C29.5950833,22.699 27.5404167,24 25.25,24 C22.9595833,24 20.9049167,23.292 19.5,22.309 C18.0950833,21.324 16.0404167,20.615 13.75,20.615 C11.4595833,20.615 9.40491667,21.832 8,22.814 L8,4.2 C9.40491667,3.216 11.4595833,2 13.75,2 C16.0404167,2 18.0950833,2.708 19.5,3.691 C20.9049167,4.676 22.9595833,5.385 25.25,5.385" fill="#000000"></path>
</svg>
