<?xml version="1.0" encoding="UTF-8"?>
<svg viewBox="0 0 32 32" version="1.1" xmlns="http://www.w3.org/2000/svg" xmlns:xlink="http://www.w3.org/1999/xlink">
    <path d="M15.484,18.571 C15.484,18.726 15.424,18.863 15.305,18.982 L9.376,24.911 L11.947,27.482 C12.173,27.708 12.286,27.976 12.286,28.286 C12.286,28.596 12.173,28.863 11.947,29.09 C11.721,29.316 11.453,29.429 11.143,29.429 L3.143,29.429 C2.834,29.429 2.566,29.316 2.339,29.09 C2.112,28.864 2,28.596 2,28.286 L2,20.286 C2,19.977 2.113,19.709 2.339,19.482 C2.565,19.255 2.833,19.143 3.143,19.143 C3.453,19.143 3.72,19.256 3.947,19.482 L6.518,22.053 L12.447,16.124 C12.566,16.005 12.703,15.945 12.858,15.945 C13.013,15.945 13.15,16.005 13.269,16.124 L15.305,18.16 C15.424,18.279 15.484,18.416 15.484,18.571 L15.484,18.571 L15.484,18.571 Z M29.43,3.143 L29.43,11.143 C29.43,11.452 29.317,11.72 29.091,11.947 C28.865,12.174 28.597,12.286 28.287,12.286 C27.977,12.286 27.71,12.173 27.483,11.947 L24.912,9.376 L18.983,15.305 C18.864,15.424 18.727,15.484 18.572,15.484 C18.417,15.484 18.28,15.424 18.161,15.305 L16.125,13.269 C16.006,13.15 15.946,13.013 15.946,12.858 C15.946,12.703 16.006,12.566 16.125,12.447 L22.054,6.518 L19.483,3.947 C19.257,3.721 19.144,3.453 19.144,3.143 C19.144,2.833 19.257,2.566 19.483,2.339 C19.709,2.113 19.977,2 20.287,2 L28.287,2 C28.596,2 28.864,2.113 29.091,2.339 C29.318,2.565 29.43,2.833 29.43,3.143 L29.43,3.143 L29.43,3.143 Z" fill="#000000"></path>
</svg>
