<?xml version="1.0" encoding="UTF-8"?>
<svg viewBox="-4 -4 40 40" version="1.1" xmlns="http://www.w3.org/2000/svg" xmlns:xlink="http://www.w3.org/1999/xlink">
    <path d="M16.2311902,17.1587311 L16.2311902,26.6518152 C16.2311902,27.0188811 16.0970919,27.3368995 15.8289023,27.6058702 C15.5607127,27.8748409 15.2426826,28.0089307 14.874812,28.0081396 C14.5069413,28.0073485 14.1889112,27.8732587 13.9207216,27.6058702 L10.8697686,24.5550303 L3.83394571,31.5905922 C3.69233529,31.7321974 3.52976019,31.803 3.34622043,31.803 C3.16268066,31.803 3.00010557,31.7321974 2.85849514,31.5905922 L0.442415635,29.1746023 C0.300805212,29.0329972 0.23,28.8704281 0.23,28.6868951 C0.23,28.5033622 0.300805212,28.3407931 0.442415635,28.1991879 L7.47823852,21.163626 L4.42728547,18.112786 C4.1590959,17.8446064 4.02500111,17.5265881 4.02500111,17.1587311 C4.02500111,16.7908741 4.1590959,16.4728557 4.42728547,16.2046761 C4.69547504,15.9364965 5.01350515,15.8024067 5.38137581,15.8024067 L14.874812,15.8024067 C15.2418915,15.8024067 15.5599216,15.9364965 15.8289023,16.2046761 C16.097883,16.4728557 16.2319778,16.7908741 16.2311902,17.1587311 L16.2311902,17.1587311 Z M32.23,2.91910487 C32.23,3.10263783 32.1591948,3.26520689 32.0175844,3.40681207 L24.9817615,10.442374 L28.0327145,13.493214 C28.3009041,13.7613936 28.4349989,14.0794119 28.4349989,14.4472689 C28.4349989,14.8151259 28.3009041,15.1331443 28.0327145,15.4013239 C27.764525,15.6695035 27.4464948,15.8035933 27.0786242,15.8035933 L17.585188,15.8035933 C17.2181085,15.8035933 16.9000784,15.6695035 16.6310977,15.4013239 C16.362117,15.1331443 16.2280222,14.8151259 16.2288098,14.4472689 L16.2288098,4.95418478 C16.2288098,4.58711886 16.3629081,4.26910054 16.6310977,4.00012983 C16.8992873,3.73115911 17.2173174,3.59706929 17.585188,3.59786038 C17.9530587,3.59865148 18.2710888,3.73274129 18.5392784,4.00012983 L21.5902314,7.05096974 L28.6260543,0.0154077576 C28.7676647,-0.126197414 28.9302398,-0.197 29.1137796,-0.197 C29.2973193,-0.197 29.4598944,-0.126197414 29.6015049,0.0154077576 L32.0175844,2.43139767 C32.1591948,2.57300284 32.23,2.73557191 32.23,2.91910487 L32.23,2.91910487 Z" fill="#000000"></path>
</svg>
