<?xml version="1.0" encoding="UTF-8"?>
<svg viewBox="0 0 32 32" version="1.1" xmlns="http://www.w3.org/2000/svg" xmlns:xlink="http://www.w3.org/1999/xlink">
    <path d="M27.4330344,18.2861064 L27.4330344,27.6924519 C27.4330344,28.0319334 27.3074345,28.3260532 27.0562347,28.5748112 C26.8050349,28.8235692 26.5071519,28.9475824 26.1625858,28.946854 L18.5410055,28.946854 L18.5410055,21.4215549 L13.4603225,21.4215549 L13.4603225,28.946854 L5.83874227,28.946854 C5.49491715,28.946854 5.19703418,28.8228375 4.94509337,28.5748112 C4.69315255,28.3267848 4.56755264,28.032665 4.56829038,27.6924519 L4.56829038,18.2861064 C4.56829038,18.2729369 4.57162815,18.2531826 4.57829718,18.2268435 C4.5849662,18.2005044 4.58830071,18.1807501 4.58830071,18.1675806 L16.0012198,8.87866354 L27.4141388,18.1675806 C27.4274769,18.1939196 27.4341459,18.2330624 27.4341459,18.285009 L27.4330344,18.2861064 Z M31.8590418,16.9340334 L30.6286073,18.3837805 C30.5226439,18.5015748 30.383706,18.5732756 30.2117934,18.5988831 L30.1517722,18.5988831 C29.9798597,18.5988831 29.8409217,18.5531555 29.7349584,18.4617003 L16.0001083,7.15345353 L2.26525816,18.4617003 C2.10668365,18.566325 1.94773863,18.6120526 1.78842312,18.5988831 C1.61651056,18.572544 1.47757261,18.5008431 1.37160926,18.3837805 L0.141174766,16.9340334 C0.0352114218,16.8030697 -0.0111012286,16.649425 0.00223681472,16.4730995 C0.015574858,16.2967739 0.0881930939,16.1562988 0.220091522,16.0516741 L14.4906864,4.31322229 C14.9137987,3.97374076 15.4165689,3.804 15.9989968,3.804 C16.5814247,3.804 17.0841948,3.97374076 17.5073072,4.31322229 L22.3501284,8.31127577 L22.3501284,4.48991365 C22.3501284,4.30700334 22.4097791,4.15665107 22.5290805,4.03885683 C22.6483819,3.9210626 22.8006579,3.86216548 22.9859085,3.86216548 L26.7972543,3.86216548 C26.9825049,3.86216548 27.1347809,3.9210626 27.2540823,4.03885683 C27.3733837,4.15665107 27.4330344,4.30700334 27.4330344,4.48991365 L27.4330344,12.4860206 L31.780125,16.0527716 C31.9127644,16.1573963 31.9853827,16.2978714 31.9979797,16.4741969 C32.0105768,16.6505225 31.9642641,16.8041671 31.8590418,16.9351309 L31.8590418,16.9340334 Z" fill="#000000"></path>
</svg>
