<?xml version="1.0" encoding="UTF-8"?>
<svg viewBox="0 0 32 32" version="1.1" xmlns="http://www.w3.org/2000/svg" xmlns:xlink="http://www.w3.org/1999/xlink">
    <path d="M26.715,22.428 C26.715,21.952 26.548,21.547 26.215,21.214 L22.501,17.5 C22.168,17.167 21.763,17 21.287,17 C20.787,17 20.358,17.19 20.001,17.571 C20.037,17.607 20.15,17.717 20.34,17.901 C20.53,18.085 20.658,18.214 20.724,18.285 C20.79,18.356 20.879,18.469 20.992,18.624 C21.105,18.779 21.182,18.931 21.224,19.079 C21.266,19.228 21.287,19.392 21.287,19.57 C21.287,20.046 21.12,20.451 20.787,20.784 C20.454,21.117 20.049,21.284 19.573,21.284 C19.394,21.284 19.231,21.263 19.082,21.221 C18.933,21.179 18.781,21.102 18.627,20.989 C18.472,20.876 18.359,20.787 18.288,20.721 C18.217,20.655 18.089,20.528 17.904,20.337 C17.719,20.147 17.609,20.033 17.574,19.998 C17.181,20.367 16.985,20.802 16.985,21.302 C16.985,21.778 17.152,22.183 17.485,22.516 L21.164,26.212 C21.485,26.533 21.89,26.694 22.378,26.694 C22.854,26.694 23.259,26.539 23.592,26.23 L26.217,23.623 C26.55,23.29 26.717,22.891 26.717,22.427 L26.717,22.427 L26.715,22.428 Z M14.161,9.839 C14.161,9.363 13.994,8.958 13.661,8.625 L9.982,4.929 C9.649,4.596 9.244,4.429 8.768,4.429 C8.304,4.429 7.899,4.59 7.554,4.911 L4.929,7.518 C4.596,7.851 4.429,8.25 4.429,8.714 C4.429,9.19 4.596,9.595 4.929,9.928 L8.643,13.642 C8.964,13.963 9.369,14.124 9.857,14.124 C10.357,14.124 10.786,13.939 11.143,13.57 C11.107,13.534 10.994,13.424 10.804,13.24 C10.614,13.056 10.486,12.927 10.42,12.856 C10.354,12.785 10.265,12.672 10.152,12.517 C10.039,12.362 9.962,12.21 9.92,12.062 C9.878,11.913 9.857,11.749 9.857,11.571 C9.857,11.095 10.024,10.69 10.357,10.357 C10.69,10.024 11.095,9.857 11.571,9.857 C11.75,9.857 11.913,9.878 12.062,9.92 C12.211,9.962 12.363,10.039 12.517,10.152 C12.672,10.265 12.785,10.354 12.856,10.42 C12.927,10.486 13.055,10.613 13.24,10.804 C13.425,10.994 13.535,11.108 13.57,11.143 C13.963,10.774 14.159,10.339 14.159,9.839 L14.159,9.839 L14.161,9.839 Z M30.143,22.428 C30.143,23.857 29.637,25.065 28.625,26.053 L26,28.66 C25.012,29.648 23.804,30.142 22.375,30.142 C20.934,30.142 19.72,29.636 18.732,28.624 L15.053,24.928 C14.065,23.94 13.571,22.732 13.571,21.303 C13.571,19.839 14.095,18.595 15.142,17.571 L13.571,16 C12.547,17.048 11.309,17.571 9.857,17.571 C8.428,17.571 7.214,17.071 6.214,16.071 L2.5,12.357 C1.5,11.357 1,10.143 1,8.714 C1,7.285 1.506,6.077 2.518,5.089 L5.143,2.482 C6.131,1.494 7.339,1 8.768,1 C10.209,1 11.423,1.506 12.411,2.518 L16.09,6.214 C17.078,7.202 17.572,8.41 17.572,9.839 C17.572,11.303 17.048,12.547 16.001,13.571 L17.572,15.142 C18.596,14.094 19.834,13.571 21.286,13.571 C22.715,13.571 23.929,14.071 24.929,15.071 L28.643,18.785 C29.643,19.785 30.143,20.999 30.143,22.428 L30.143,22.428 Z" fill="#000000"></path>
</svg>
