<?xml version="1.0" encoding="UTF-8"?>
<svg viewBox="0 0 32 32" version="1.1" xmlns="http://www.w3.org/2000/svg" xmlns:xlink="http://www.w3.org/1999/xlink">
    <path d="M14.2222222,0 C22.0769387,0 28.4444444,6.36750578 28.4444444,14.2222222 C28.4444444,17.5090838 27.329454,20.5355253 25.4570742,22.9439459 L31.4793009,28.9651435 C32.1735664,29.6594089 32.1735664,30.7850355 31.4793009,31.4793009 C30.7850355,32.1735664 29.6594089,32.1735664 28.9651435,31.4793009 L28.9651435,31.4793009 L22.9439459,25.4570742 C20.5355253,27.329454 17.5090838,28.4444444 14.2222222,28.4444444 C6.36750578,28.4444444 0,22.0769387 0,14.2222222 C0,6.36750578 6.36750578,0 14.2222222,0 Z M14.2222222,3.55555556 C8.33118489,3.55555556 3.55555556,8.33118489 3.55555556,14.2222222 C3.55555556,20.1132596 8.33118489,24.8888889 14.2222222,24.8888889 C20.1132596,24.8888889 24.8888889,20.1132596 24.8888889,14.2222222 C24.8888889,8.33118489 20.1132596,3.55555556 14.2222222,3.55555556 Z" fill="#000000"></path>
</svg>
