<?xml version="1.0" encoding="UTF-8"?>
<svg viewBox="0 0 32 32" version="1.1" xmlns="http://www.w3.org/2000/svg" xmlns:xlink="http://www.w3.org/1999/xlink">
    <path d="M7.63817283,8.10151997 C7.63817283,7.49120764 7.42742509,6.96992608 7.00592961,6.53767527 C6.58443413,6.10542447 6.07612316,5.88929907 5.4809967,5.88929907 C4.88587024,5.88929907 4.37755927,6.10542447 3.95606378,6.53767527 C3.5345683,6.96992608 3.32382056,7.49120764 3.32382056,8.10151997 C3.32382056,8.71183229 3.5345683,9.23311386 3.95606378,9.66536466 C4.37755927,10.0976155 4.88587024,10.3137409 5.4809967,10.3137409 C6.07612316,10.3137409 6.58443413,10.0976155 7.00592961,9.66536466 C7.42742509,9.23311386 7.63817283,8.71183229 7.63817283,8.10151997 Z M25.6184152,18.0545786 C25.6184152,18.6648909 25.4104984,19.1832693 24.9946648,19.6097137 L16.7207714,28.1121515 C16.2829194,28.538596 15.7717775,28.7518182 15.1873457,28.7518182 C14.5922192,28.7518182 14.0867392,28.538596 13.6709056,28.1121515 L1.62242573,15.738811 C1.19526837,15.3123666 0.832908073,14.7304409 0.535344844,13.9930339 C0.237781615,13.2556269 0.089,12.5817673 0.089,11.9714549 L0.089,4.7822209 C0.089,4.18287613 0.302578681,3.66449774 0.729736044,3.22708573 C1.15689341,2.78967373 1.66237344,2.57064515 2.24617614,2.57 L9.25652676,2.57 C9.85165322,2.57 10.5087458,2.72257808 11.2278045,3.02773425 C11.9468632,3.33289041 12.5196567,3.70449707 12.946185,4.14255422 L24.9946648,16.4810566 C25.4104984,16.9300813 25.6184152,17.4542661 25.6184152,18.0536108 L25.6184152,18.0545786 Z M32.089,18.0545786 C32.089,18.6648909 31.8810832,19.1832693 31.4652496,19.6097137 L23.1913562,28.1121515 C22.7535041,28.538596 22.2423622,28.7518182 21.6579304,28.7518182 C21.2534206,28.7518182 20.9218861,28.6711744 20.6633269,28.5098868 C20.4047677,28.3485991 20.1072045,28.0892487 19.7706372,27.7318353 L27.6906632,19.6097137 C28.1064968,19.1832693 28.3144136,18.6648909 28.3144136,18.0545786 C28.3144136,17.4552338 28.1064968,16.931049 27.6906632,16.4820243 L15.6421833,4.14352195 C15.215026,3.70546479 14.6422325,3.33385813 13.9238029,3.02870197 C13.2053733,2.72354581 12.5482807,2.57096773 11.9525251,2.57096773 L15.7271115,2.57096773 C16.322238,2.57096773 16.9793306,2.72354581 17.6983893,3.02870197 C18.417448,3.33385813 18.9902415,3.70546479 19.4167698,4.14352195 L31.4652496,16.4820243 C31.8810832,16.931049 32.089,17.4552338 32.089,18.0545786 Z" fill="#000000" transform="translate(16.089000, 15.660909) scale(-1, 1) translate(-16.089000, -15.660909) "></path>
</svg>
