<?xml version="1.0" encoding="UTF-8"?>
<svg viewBox="0 0 24 24" version="1.1" xmlns="http://www.w3.org/2000/svg" xmlns:xlink="http://www.w3.org/1999/xlink">
    <path d="M9.225,4.553125 L9,5 L6,5 C5.446875,5 5,5.446875 5,6 C5,6.553125 5.446875,7 6,7 L18,7 C18.553125,7 19,6.553125 19,6 C19,5.446875 18.553125,5 18,5 L15,5 L14.775,4.553125 C14.60625,4.2125 14.259375,4 13.88125,4 L10.11875,4 C9.740625,4 9.39375,4.2125 9.225,4.553125 Z M18,8 L6,8 L6.6625,18.59375 C6.7125,19.384375 7.36875,20 8.159375,20 L15.840625,20 C16.63125,20 17.2875,19.384375 17.3375,18.59375 L18,8 Z"
          fill="#000000" fill-rule="nonzero"></path>
</svg>
