<?xml version="1.0" encoding="UTF-8"?>
<svg viewBox="0 0 32 32" version="1.1" xmlns="http://www.w3.org/2000/svg" xmlns:xlink="http://www.w3.org/1999/xlink">
    <path d="M16.326087,4 C21.3797706,4 25.8414798,4.47152255 29.7126679,5.4182418 C31.0554564,5.74662773 32,6.95004106 32,8.33238066 L32,8.33238066 L32,24.7258283 C32,26.0815574 31.0907541,27.2688066 29.7818724,27.6221511 C26.3678289,28.5437761 21.8863325,29 16.326087,29 C10.7059958,29 6.02339405,28.5337372 2.27166447,27.5948087 C0.936512547,27.2606663 0,26.0608789 0,24.6845572 L0,24.6845572 L0,8.36607169 C0,6.96525403 0.969434921,5.75090457 2.33544948,5.44060253 C6.56631296,4.47951515 11.2298906,4 16.326087,4 Z M16.326087,6 C11.3733258,6 6.85749011,6.46432413 2.77848236,7.39091581 C2.32314451,7.49434974 2,7.89913231 2,8.36607169 L2,8.36607169 L2,24.6845638 C2,25.1433367 2.31216948,25.5432641 2.7572205,25.654645 C6.33250002,26.5494141 10.8576612,27 16.326087,27 C21.7246627,27 26.039942,26.5606973 29.2606214,25.6912711 C29.6969165,25.5734893 30,25.1777376 30,24.7258283 L30,24.7258283 L30,8.33236243 C30,7.87158541 29.6851559,7.4704524 29.2375586,7.36099016 C25.5324565,6.4548881 21.2281482,6 16.326087,6 Z M11,10 L22,16.5 L11,23 L11,10 Z" fill="#000000"></path>
</svg>
