<?xml version="1.0" encoding="UTF-8"?>
<svg viewBox="0 0 32 32" version="1.1" xmlns="http://www.w3.org/2000/svg" xmlns:xlink="http://www.w3.org/1999/xlink">
    <path d="M16.3478261,4 C21.7084045,4 26.4222506,4.51317329 30.4893646,5.53951988 C31.3776057,5.76366979 32.0000032,6.56264276 32,7.47872981 L32,7.47872981 L32,25.581606 C32,26.4783899 31.4030583,27.2655417 30.5395217,27.507463 C26.987666,28.5024877 22.2571008,29 16.3478261,29 C10.3749404,29 5.425241,28.491719 1.49872793,27.4751569 C0.616302935,27.2466998 -2.06328248e-05,26.4504916 0,25.5389728 L0,25.5389728 L0,7.51336926 C2.98805823e-16,6.58431754 0.639776027,5.77759966 1.54439788,5.56594806 C6.00695621,4.52198269 10.9414323,4 16.3478261,4 Z M11,10 L11,23 L22,16.5 L11,10 Z" fill="#000000"></path>
</svg>
