<?xml version="1.0" encoding="UTF-8"?>
<svg viewBox="0 0 32 32" version="1.1" xmlns="http://www.w3.org/2000/svg" xmlns:xlink="http://www.w3.org/1999/xlink">
    <path d="M9.61289944,8.20970461 L9.70710678,8.29289322 L16.037,14.622 L22.3670434,8.29289322 L22.4612507,8.20970461 C22.8535419,7.90467972 23.420773,7.93240926 23.7812569,8.29289322 C24.1717812,8.68341751 24.1717812,9.31658249 23.7812569,9.70710678 L23.7812569,9.70710678 L17.451,16.037 L23.7812569,22.3670434 C24.1717812,22.7575677 24.1717812,23.3907326 23.7812569,23.7812569 C23.420773,24.1417409 22.8535419,24.1694704 22.4612507,23.8644455 L22.3670434,23.7812569 L16.037,17.451 L9.70710678,23.7812569 L9.61289944,23.8644455 C9.22060824,24.1694704 8.65337718,24.1417409 8.29289322,23.7812569 C7.90236893,23.3907326 7.90236893,22.7575677 8.29289322,22.3670434 L8.29289322,22.3670434 L14.622,16.037 L8.29289322,9.70710678 C7.90236893,9.31658249 7.90236893,8.68341751 8.29289322,8.29289322 C8.65337718,7.93240926 9.22060824,7.90467972 9.61289944,8.20970461 Z" fill="#000000"></path>
</svg>
