<?xml version="1.0" encoding="UTF-8"?>
<svg viewBox="0 0 32 32" version="1.1" xmlns="http://www.w3.org/2000/svg" xmlns:xlink="http://www.w3.org/1999/xlink">
    <path d="M25.7142857,16.107 C25.7142857,16.8189546 25.4705422,17.4423461 24.9819473,17.9760245 L12.0823775,31.3467383 C11.5937826,31.8539628 11.0010428,32.107 10.3019421,32.107 C9.6028415,32.107 9.00899374,31.8539628 8.52150678,31.3467383 L7.01805266,29.8066621 C6.52945777,29.2729838 6.28571429,28.6495922 6.28571429,27.9376376 C6.28571429,27.211881 6.52945777,26.5953905 7.01805266,26.0893162 L16.6337331,16.107 L7.01805266,6.14538689 C6.52945777,5.6117085 6.28571429,4.98831694 6.28571429,4.27636238 C6.28571429,3.55060578 6.52945777,2.93411523 7.01805266,2.4280409 L8.52150678,0.887964704 C8.99680657,0.368088347 9.5895464,0.107 10.3019421,0.107 C11.0143379,0.107 11.6081856,0.366938178 12.0823775,0.887964704 L24.9819473,14.2586785 C25.4705422,14.7647529 25.7142857,15.3812434 25.7142857,16.107 L25.7142857,16.107 L25.7142857,16.107 Z" fill="#000000" transform="translate(16.000000, 16.107000) rotate(90.000000) translate(-16.000000, -16.107000)"></path>
</svg>
