<?xml version="1.0" encoding="UTF-8"?>
<svg viewBox="0 0 32 32" version="1.1" xmlns="http://www.w3.org/2000/svg" xmlns:xlink="http://www.w3.org/1999/xlink">
    <path d="M32.142,13.8567083 L32.142,17.8572917 C32.142,18.4126366 31.9294473,18.8851464 31.5056147,19.2736545 C31.081782,19.6621626 30.5663099,19.857 29.9604711,19.857 L2.32352892,19.857 C1.71769008,19.857 1.20221796,19.6621626 0.778385331,19.2736545 C0.354552701,18.8851464 0.142,18.4126366 0.142,17.8572917 L0.142,13.8567083 C0.142,13.3013634 0.354552701,12.8288536 0.778385331,12.4403455 C1.20221796,12.0518374 1.71769008,11.857 2.32352892,11.857 L29.9604711,11.857 C30.5663099,11.857 31.081782,12.0518374 31.5056147,12.4403455 C31.9294473,12.8288536 32.142,13.3013634 32.142,13.8567083 L32.142,13.8567083 Z" fill="#000000"></path>
</svg>
