<?xml version="1.0" encoding="UTF-8"?>
<svg viewBox="0 0 32 32" version="1.1" xmlns="http://www.w3.org/2000/svg" xmlns:xlink="http://www.w3.org/1999/xlink">
    <path d="M18.2503281,-0.5 C18.8750911,-0.5 19.4066647,-0.287447299 19.8437363,0.136385331 C20.2808079,0.560217962 20.5,1.07569008 20.5,1.68152892 L20.5,11 L29.8184711,11 C30.4243099,11 30.939782,11.2191921 31.3636147,11.6562637 C31.7874473,12.0933353 32,12.6249089 32,13.2496719 L32,17.7503281 C32,18.3750911 31.7874473,18.9066647 31.3636147,19.3437363 C30.939782,19.7808079 30.4243099,20 29.8184711,20 L20.5,20 L20.5,29.3184711 C20.5,29.9243099 20.2808079,30.439782 19.8437363,30.8636147 C19.4066647,31.2874473 18.8750911,31.5 18.2503281,31.5 L13.7496719,31.5 C13.1249089,31.5 12.5933353,31.2874473 12.1562637,30.8636147 C11.7191921,30.439782 11.5,29.9243099 11.5,29.3184711 L11.5,20 L2.18152892,20 C1.57569008,20 1.06021796,19.7808079 0.636385331,19.3437363 C0.212552701,18.9066647 0,18.3750911 0,17.7503281 L0,13.2496719 C0,12.6249089 0.212552701,12.0933353 0.636385331,11.6562637 C1.06021796,11.2191921 1.57569008,11 2.18152892,11 L11.5,11 L11.5,1.68152892 C11.5,1.07569008 11.7191921,0.560217962 12.1562637,0.136385331 C12.5933353,-0.287447299 13.1249089,-0.5 13.7496719,-0.5 L18.2503281,-0.5 Z" fill="#000000"></path>
</svg>
