<?xml version="1.0" encoding="UTF-8"?>
<svg viewBox="0 0 32 32" version="1.1" xmlns="http://www.w3.org/2000/svg" xmlns:xlink="http://www.w3.org/1999/xlink">
    <circle fill="#F4F4F4" cx="16" cy="16" r="16"></circle>
    <circle stroke="#3562DA" stroke-width="3" fill="#AFC4FD" cx="16" cy="16" r="11.3"></circle>
    <path d="M16,3.2 C23.0692448,3.2 28.8,8.9307552 28.8,16 C28.8,23.0692448 23.0692448,28.8 16,28.8 C8.9307552,28.8 3.2,23.0692448 3.2,16 C3.2,8.9307552 8.9307552,3.2 16,3.2 Z M16,6.2 C10.5876095,6.2 6.2,10.5876095 6.2,16 C6.2,21.4123905 10.5876095,25.8 16,25.8 C21.4123905,25.8 25.8,21.4123905 25.8,16 C25.8,10.5876095 21.4123905,6.2 16,6.2 Z M17.3829959,8.68347889 C18.1321968,8.50429666 18.855184,8.51607421 19.5229254,8.67647998 C19.8635891,8.75819028 19.9774913,9.19071954 19.7297026,9.4383581 L19.7297026,9.4383581 L17.5720155,11.59551 L17.5720155,13.9369328 L19.9143251,13.9369384 L22.0720121,11.7797865 C22.3197727,11.5320634 22.7523248,11.6458943 22.8341788,11.9865417 C22.9948426,12.6543121 23.0061173,13.3756168 22.7772418,14.1508504 C22.3628982,15.8808547 20.8918376,17.232174 19.1327096,17.5094255 C18.3756166,17.6287789 17.646992,17.5582263 16.9857335,17.340257 L16.9857335,17.340257 L11.9656934,22.3583965 C11.5691074,22.7545224 11.0251053,22.9526276 10.5307117,22.9526276 C10.0363181,22.9526276 9.51768399,22.7300375 9.14674784,22.3327564 C8.35413961,21.54073 8.35413961,20.2567512 9.14674784,19.4644431 L9.14674784,19.4644431 L14.1667879,14.4463035 C13.9469321,13.7869859 13.8764655,13.0572284 14.0231488,12.3266313 C14.2993778,10.568451 15.6509271,9.09766559 17.3829959,8.68347889 Z M10.7815728,20.0223272 C10.4080999,20.0223272 10.1050935,20.3249371 10.1050935,20.6985504 C10.1050935,21.0718819 10.4080999,21.3747735 10.7815728,21.3747735 C11.1550457,21.3747735 11.4580521,21.0732907 11.4580521,20.6985504 C11.4580521,20.3249371 11.1550457,20.0223272 10.7815728,20.0223272 Z" fill="#3562DA"></path>
</svg>
