<?xml version="1.0" encoding="UTF-8"?>
<svg viewBox="0 0 32 32" version="1.1" xmlns="http://www.w3.org/2000/svg" xmlns:xlink="http://www.w3.org/1999/xlink">
    <circle fill="#F4F4F4" cx="16" cy="16" r="16"></circle>
    <path d="M16,3.2 C23.0692448,3.2 28.8,8.9307552 28.8,16 C28.8,23.0692448 23.0692448,28.8 16,28.8 C8.9307552,28.8 3.2,23.0692448 3.2,16 C3.2,8.9307552 8.9307552,3.2 16,3.2 Z M23.8271199,10.1019401 L21.5557018,12.3734241 C21.7998965,12.4297501 22,12.6548856 22,12.9513393 L22,19.8214286 C22,20.4720982 21.4960937,21 20.875,21 L12.929,21 L10.1019401,23.8271199 C11.7429178,25.0656146 13.7856964,25.8 16,25.8 C21.4123905,25.8 25.8,21.4123905 25.8,16 C25.8,13.7856964 25.0656146,11.7429178 23.8271199,10.1019401 Z M16,6.2 C10.5876095,6.2 6.2,10.5876095 6.2,16 C6.2,18.1152588 6.87015725,20.0739939 8.00973456,21.6754683 L9.999,19.686 L10,10.7857143 C10,10.3518527 10.3358594,10 10.75,10 L12.25,10 C12.6648437,10 13,10.3518527 13,10.7857143 L13,14.503125 L16.6703125,12.4308036 C16.8618709,12.3229379 17.074223,12.3444937 17.2361398,12.4509602 L21.6764797,8.01045435 C20.0748187,6.87043945 18.1157041,6.2 16,6.2 Z" fill="#807F84"></path>
</svg>
