<?xml version="1.0" encoding="UTF-8"?>
<svg viewBox="0 0 32 32" version="1.1" xmlns="http://www.w3.org/2000/svg" xmlns:xlink="http://www.w3.org/1999/xlink">
    <circle fill="#F4F4F4" cx="16" cy="16" r="16"></circle>
    <circle stroke="#3562DA" stroke-width="3" fill="#AFC4FD" cx="16" cy="16" r="11.3"></circle>
    <path d="M16,3.2 C23.0692448,3.2 28.8,8.9307552 28.8,16 C28.8,23.0692448 23.0692448,28.8 16,28.8 C8.9307552,28.8 3.2,23.0692448 3.2,16 C3.2,8.9307552 8.9307552,3.2 16,3.2 Z M16,6.2 C10.5876095,6.2 6.2,10.5876095 6.2,16 C6.2,21.4123905 10.5876095,25.8 16,25.8 C21.4123905,25.8 25.8,21.4123905 25.8,16 C25.8,10.5876095 21.4123905,6.2 16,6.2 Z" fill="#3562DA"></path>
    <path d="M12.25,10 C12.6648437,10 13,10.3518527 13,10.7857143 L13,14.503125 L16.6703125,12.4308036 C17.0453125,12.2196429 17.5,12.5044643 17.5,12.9513393 L17.5,14.503125 L21.1703125,12.4308036 C21.5453125,12.2196429 22,12.5044643 22,12.9513393 L22,19.8214286 C22,20.4720982 21.4960938,21 20.875,21 L11.125,21 C10.5036719,21 10,20.4720982 10,19.8214286 L10,10.7857143 C10,10.3518527 10.3358594,10 10.75,10 L12.25,10 Z M16.3115141,15.0490692 C15.6619883,15.2043892 15.1551573,15.7559338 15.0515714,16.4152514 C14.9965652,16.6892253 15.0229902,16.9628844 15.1054361,17.2101285 L13.2229211,19.0919308 C12.925693,19.3890463 12.925693,19.8705384 13.2229211,20.1675483 C13.3620221,20.3165287 13.5565099,20.4 13.7419075,20.4 C13.9273051,20.4 14.1313059,20.3257105 14.2800257,20.1771633 L16.1625407,18.295361 C16.4105126,18.3770995 16.6837468,18.4035567 16.9676567,18.3587992 C17.6273297,18.2548299 18.1789775,17.7480851 18.3343563,17.0993335 C18.4201846,16.808621 18.4159566,16.5381317 18.3557077,16.2877178 C18.3250124,16.159975 18.1628054,16.1172884 18.0698952,16.2101846 L17.2607625,17.0191166 L16.3823964,17.0191144 L16.3823964,16.1410809 L17.1915291,15.3321489 C17.2844499,15.2392845 17.2417365,15.077086 17.1139877,15.0464446 C16.8635846,14.9862925 16.5924644,14.9818759 16.3115141,15.0490692 Z M13.8359804,19.3011373 C13.9760328,19.3011373 14.0896602,19.414616 14.0896602,19.554721 C14.0896602,19.6952487 13.9760328,19.8083047 13.8359804,19.8083047 C13.6959281,19.8083047 13.5823007,19.6947204 13.5823007,19.554721 C13.5823007,19.414616 13.6959281,19.3011373 13.8359804,19.3011373 Z" fill="#3562DA"></path>
</svg>
