<?xml version="1.0" encoding="UTF-8"?>
<svg viewBox="0 0 32 32" version="1.1" xmlns="http://www.w3.org/2000/svg" xmlns:xlink="http://www.w3.org/1999/xlink">
    <path d="M16,4 C22.627417,4 28,9.372583 28,16 C28,22.627417 22.627417,28 16,28 C9.372583,28 4,22.627417 4,16 C4,9.372583 9.372583,4 16,4 Z M10.2508523,9.36630682 L9.36630682,10.2508523 C8.87789773,10.7392614 8.87789773,11.5311364 9.36630682,12.0199432 L13.3463636,16 L9.36630682,19.9800568 C8.87789773,20.4684659 8.87789773,21.2603409 9.36630682,21.7491477 L10.2508523,22.6336932 C10.7392614,23.1221023 11.5315341,23.1221023 12.0199432,22.6336932 L16,18.6536364 L19.9800568,22.6336932 C20.4684659,23.1221023 21.2607386,23.1221023 21.7491477,22.6336932 L22.6336932,21.7491477 C23.1221023,21.2607386 23.1221023,20.4688636 22.6336932,19.9800568 L18.6536364,16 L22.6336932,12.0199432 C23.1221023,11.5315341 23.1221023,10.7396591 22.6336932,10.2508523 L21.7491477,9.36630682 C21.2607386,8.87789773 20.4688636,8.87789773 19.9800568,9.36630682 L16,13.3463636 L12.0199432,9.36630682 C11.5315341,8.87789773 10.7396591,8.87789773 10.2508523,9.36630682 Z" fill="#000000"></path>
</svg>
